<?xml version="1.0" encoding="utf-8"?>
<!-- Svg Vector Icons : http://www.onlinewebfonts.com/icon -->
<!DOCTYPE svg PUBLIC "-//W3C//DTD SVG 1.1//EN" "http://www.w3.org/Graphics/SVG/1.1/DTD/svg11.dtd">
<svg version="1.1" xmlns="http://www.w3.org/2000/svg" xmlns:xlink="http://www.w3.org/1999/xlink" x="0px" y="0px" viewBox="0 0 1000 1000" enable-background="new 0 0 1000 1000" xml:space="preserve">
<metadata> Svg Vector Icons : http://www.onlinewebfonts.com/icon </metadata>
<g><g transform="translate(0.000000,511.000000) scale(0.100000,-0.100000)"><path d="M4465.2,4996.6c-1105.7-124.7-2144.8-623.5-2932.5-1409.1C761.7,2814.4,277.4,1831.3,132,734c-43.7-313.8-41.6-933.2,0-1253.2c97.7-744,359.5-1450.6,758.6-2055.4c808.4-1222,2059.6-2001.4,3533.1-2196.7c253.6-33.3,910.3-33.3,1163.9,0c1155.5,153.8,2180.2,665.1,2957.4,1475.6c694.2,725.3,1122.3,1571.2,1309.3,2589.6c39.5,216.1,45.7,322.1,45.7,810.5c0,498.8-6.2,590.2-49.9,831.3c-272.2,1513-1174.2,2772.5-2506.4,3495.7C6768,4743,6173.6,4928,5521,4998.7C5288.2,5023.6,4691.8,5021.5,4465.2,4996.6z M5629.1,3907.6c1619-270.2,2882.6-1529.6,3169.4-3159c18.7-101.8,39.5-336.7,45.7-519.6c56.1-1643.9-931.1-3119.5-2487.7-3722.2c-825.1-318-1880.9-315.9-2710.1,4.1C2931.4-3212.7,2308-2730.5,1857-2098.7c-168.4,234.9-403.2,700.4-498.8,991.4c-569.5,1725,122.6,3583,1683.4,4524.4c446.8,270.2,993.4,453.1,1548.3,521.7C4806.1,3963.7,5392.1,3947,5629.1,3907.6z"/><path d="M4860.1,2955.7v-359.6l-185-35.3c-579.8-108.1-985.1-461.4-1118.1-970.6c-45.7-174.6-45.7-540.4,2.1-733.6c114.3-480.1,492.6-804.3,1311.4-1126.4c542.4-212,719.1-355.4,791.8-636c79-311.7-45.7-611-307.6-727.4c-89.4-39.5-145.5-47.8-307.6-47.8c-174.6-2.1-212,6.2-328.4,58.2c-245.3,112.2-367.9,305.5-397,621.4l-12.5,149.6h-478h-478l6.2-191.2c6.2-230.7,62.3-463.5,153.8-636c193.3-361.6,629.7-646.4,1116-729.5l158-25l6.2-326.3l6.2-326.3h257.7h259.8v330.4v328.4l110.1,14.5c353.3,45.7,640.1,178.7,866.7,403.2c263.9,261.9,363.7,521.7,361.6,939.4c-2.1,523.7-172.5,835.5-617.3,1130.6c-191.2,124.7-515.4,293-754.5,388.6c-436.4,172.5-650.5,324.2-735.7,521.7c-39.5,93.5-45.7,135.1-37.4,305.5c10.4,222.4,45.7,318,166.3,432.3c91.4,89.4,220.3,130.9,399,130.9c349.2-2.1,557-236.9,604.8-690l14.6-141.3h480.1h478l-12.5,203.7c-14.6,251.5-54,403.2-162.1,621.4c-193.3,396.9-527.9,636-1041.3,744l-58.2,10.4v363.7v363.7h-259.8h-259.8V2955.7z"/></g></g>
</svg>